<svg xmlns="http://www.w3.org/2000/svg" width="1310" height="350" viewBox="0 0 1310 350" version="1.1"><path d="M 136.106 1.894 C 134.948 3.052, 133.376 7.617, 132.060 13.644 C 129.932 23.385, 127.781 33.255, 125.881 42 C 121.350 62.850, 120.081 68.253, 119.596 68.737 C 119.289 69.044, 114.373 69.899, 108.672 70.636 C 94.499 72.469, 82.566 76.068, 69.371 82.492 C 25.147 104.022, -2.931 151.651, 0.516 199.291 C 1.528 213.281, 1.539 221.407, 0.560 231 C -1.974 255.812, 15.597 278.258, 41.500 283.300 L 48.500 284.662 49.027 303.081 C 49.502 319.667, 49.785 321.972, 51.865 326.247 C 56.335 335.431, 64.920 340.184, 89 346.807 C 98.043 349.294, 99.703 349.421, 123.500 349.460 C 147.371 349.498, 148.952 349.381, 158.500 346.868 C 170.432 343.727, 183.546 338.781, 188.125 335.695 C 189.947 334.467, 192.802 331.258, 194.469 328.564 L 197.500 323.666 198.093 304.083 C 198.420 293.312, 198.757 284.387, 198.843 284.250 C 198.930 284.113, 200.238 283.995, 201.750 283.988 C 203.262 283.982, 206.916 283.333, 209.869 282.547 C 226.770 278.049, 239.542 266.189, 245.041 249.887 C 246.945 244.241, 247.122 242.166, 246.565 232 C 245.803 218.092, 245.802 218.638, 246.590 197.500 C 247.018 186.011, 246.833 178.231, 246.019 173.500 C 241.486 147.163, 229.955 124.914, 211.022 105.976 C 192.672 87.621, 170.139 75.825, 145.085 71.456 C 140.447 70.647, 136.417 69.750, 136.130 69.464 C 135.844 69.177, 136.672 63.893, 137.970 57.721 C 139.269 51.550, 141.724 39.755, 143.426 31.512 C 145.806 19.984, 146.901 16.450, 148.167 16.206 C 149.779 15.896, 192.430 24.530, 193.963 25.477 C 194.391 25.742, 195 27.250, 195.316 28.829 C 196.153 33.013, 201.900 40.014, 206.410 42.343 C 215.073 46.816, 226.227 45.301, 232.978 38.733 C 247.104 24.992, 238.641 1.614, 219.029 0.196 C 211.604 -0.341, 207.286 1.115, 201.681 6.050 C 199.213 8.222, 196.496 10, 195.644 10 C 194.791 10, 182.712 7.750, 168.801 5 C 154.890 2.250, 142.269 -0, 140.754 -0 C 139.239 -0, 137.148 0.852, 136.106 1.894 M 106.235 88.431 C 74.405 94.491, 47.008 113.383, 31.993 139.627 C 23.784 153.974, 19.882 166.107, 17.848 183.611 C 16.824 192.413, 16.906 195.638, 18.431 206.773 C 20.118 219.086, 20.119 220.054, 18.465 226.861 C 17.017 232.819, 16.915 234.950, 17.854 239.629 C 20.017 250.396, 25.770 258.397, 34.624 262.950 C 39.652 265.535, 50.075 267.332, 55.109 266.482 C 59.670 265.711, 64.757 268.063, 65.462 271.268 C 65.733 272.496, 66.077 283.466, 66.227 295.647 C 66.536 320.704, 66.482 320.525, 74.833 324.130 C 81.760 327.120, 81.721 327.165, 82.174 315.879 C 82.559 306.297, 82.728 305.631, 85.346 303.379 C 88.972 300.260, 93.381 300.290, 96.545 303.455 C 98.860 305.769, 99.001 306.555, 99.015 317.205 C 99.024 323.417, 99.408 329.095, 99.869 329.822 C 100.813 331.311, 106.898 332.940, 111.652 332.976 L 114.804 333 115.152 319.413 C 115.497 305.950, 115.526 305.803, 118.306 303.413 C 119.849 302.086, 122.009 301, 123.105 301 C 125.890 301, 130.635 303.607, 131.379 305.545 C 131.720 306.435, 132.007 312.414, 132.015 318.832 C 132.024 325.249, 132.424 331.121, 132.904 331.879 C 133.574 332.936, 135.125 333.090, 139.546 332.538 C 148.512 331.417, 148 332.249, 148 318.816 C 148 306.919, 148.018 306.828, 150.923 303.923 C 154.179 300.667, 156.732 300.293, 160.923 302.460 C 164.345 304.230, 164.964 306.286, 165.002 316 C 165.041 326.108, 165.511 326.709, 171.637 324.490 C 174.312 323.521, 177.512 321.639, 178.750 320.308 C 180.947 317.945, 181 317.353, 181 295 C 181 272.410, 181.031 272.076, 183.352 269.377 C 185.560 266.810, 186.250 266.631, 194.602 266.466 C 205.172 266.258, 209.913 265.075, 216.224 261.073 C 225.946 254.908, 230.644 244.702, 229.527 232.174 C 228.651 222.354, 228.650 215.989, 229.524 197.499 C 230.281 181.485, 229.257 173.245, 224.820 159.656 C 213.909 126.238, 184.995 99.378, 150.206 90.341 C 138.082 87.192, 117.450 86.296, 106.235 88.431 M 339.072 130.495 C 317.270 135.419, 302.117 150.626, 298.858 170.852 C 296.550 185.171, 301.340 201.557, 310.163 209.528 C 318.056 216.659, 328.293 220.291, 365 228.982 C 372.425 230.740, 380.851 233.291, 383.725 234.650 C 391.939 238.536, 395.184 244.888, 393.035 252.871 C 390.631 261.797, 383.221 266.499, 369.340 267.906 C 347.299 270.140, 332.206 263.225, 329.481 249.642 C 328.041 242.462, 329.461 243, 311.933 243 L 296 243 296 247.290 C 296 249.649, 296.690 254.228, 297.533 257.465 C 301.855 274.060, 313.662 285.540, 333.212 292.156 C 341.634 295.006, 343.951 295.344, 358.072 295.776 C 370.269 296.150, 375.466 295.884, 382.056 294.549 C 400.556 290.800, 414.526 280.808, 421.776 266.139 C 425.156 259.300, 425.493 257.837, 425.839 248.471 C 426.277 236.643, 424.623 229.306, 419.816 221.753 C 412.927 210.927, 403.121 206.308, 369.500 198.053 C 341.406 191.154, 335.025 188.730, 332.030 183.817 C 329.227 179.219, 329.333 172.285, 332.274 167.922 C 337.070 160.805, 344.618 157.754, 357.500 157.724 C 375.778 157.683, 385.244 164.266, 388.450 179.250 L 389.038 182 405.019 182 L 421 182 421 178.210 C 421 176.126, 420.321 171.815, 419.492 168.631 C 414.968 151.263, 402.907 138.970, 383.835 132.290 C 377.426 130.045, 374.543 129.678, 361 129.382 C 349.982 129.141, 343.641 129.463, 339.072 130.495 M 582 212.500 L 582 292 597.500 292 L 613 292 613 285.821 L 613 279.642 617.564 284.406 C 620.075 287.026, 624.687 290.369, 627.814 291.835 C 633.063 294.295, 634.503 294.500, 646.552 294.500 L 659.604 294.500 667.223 290.734 C 676.658 286.071, 682.514 279.842, 688.002 268.629 C 693.481 257.434, 695.100 250.572, 695.720 235.927 C 696.820 209.961, 688.672 189.624, 672.969 179.138 C 664.759 173.656, 656.585 171.664, 644.320 172.156 C 632.367 172.636, 625.667 175.429, 617.949 183.146 L 613 188.095 613 160.548 L 613 133 597.500 133 L 582 133 582 212.500 M 864 147 L 864 161 880 161 L 896 161 896 147 L 896 133 880 133 L 864 133 864 147 M 720 213 L 720 292 737 292 L 754 292 754 263.500 L 754 235 776.553 235 C 807.492 235, 817.587 232.571, 828.892 222.407 C 837.503 214.665, 841.948 201.941, 841.983 184.934 C 842.017 168.162, 837.887 156.030, 829.245 147.510 C 823.940 142.280, 813.257 136.765, 805.201 135.097 C 801.871 134.408, 785.052 134, 759.951 134 L 720 134 720 213 M 1138 159.500 L 1138 176 1130 176 L 1122 176 1122 187 L 1122 198 1129.948 198 L 1137.895 198 1138.198 238.250 C 1138.467 274.153, 1138.687 278.841, 1140.229 281.660 C 1142.471 285.758, 1148.101 290.361, 1152.789 291.931 C 1156.988 293.336, 1181.488 294.596, 1185.423 293.609 L 1188 292.962 1188 281.612 L 1188 270.263 1180.432 269.777 C 1175.181 269.440, 1172.348 268.777, 1171.182 267.611 C 1169.685 266.116, 1169.467 262.203, 1169.201 231.966 L 1168.901 198 1178.451 198 L 1188 198 1188 187 L 1188 176 1178.500 176 L 1169 176 1169 159.500 L 1169 143 1153.500 143 L 1138 143 1138 159.500 M 754 184.871 L 754 208 768.750 207.994 C 792.233 207.985, 799.999 205.981, 804.828 198.684 C 806.949 195.479, 807.551 193.215, 807.848 187.332 C 808.343 177.529, 807.482 173.618, 803.938 169.582 C 798.785 163.713, 794.861 162.772, 773.250 162.227 L 754 161.741 754 184.871 M 66 169.312 C 47.813 173.430, 34.897 188.051, 33.363 206.258 C 31.896 223.660, 40.922 239.406, 56.865 247.254 C 63.095 250.321, 64.066 250.500, 74.500 250.500 C 84.949 250.500, 85.898 250.325, 92.180 247.232 C 99.686 243.537, 108.413 234.910, 111.871 227.767 C 116.571 218.058, 117.009 203.856, 112.904 194.274 C 105.012 175.850, 84.749 165.066, 66 169.312 M 165 169.094 C 158.019 170.452, 148.448 175.814, 143.429 181.179 C 140.922 183.860, 137.437 189.079, 135.685 192.777 C 132.733 199.009, 132.500 200.269, 132.500 210.024 C 132.500 219.983, 132.683 220.920, 135.920 227.491 C 140.296 236.377, 147.161 243.234, 155.759 247.307 C 162.083 250.302, 163.181 250.499, 173.500 250.478 C 183.582 250.457, 185.001 250.212, 190.500 247.545 C 197.806 244, 206.836 235.231, 210.380 228.237 C 211.817 225.402, 213.535 219.917, 214.198 216.050 C 217.837 194.827, 202.248 173.059, 180.566 169.087 C 173.835 167.854, 171.372 167.855, 165 169.094 M 977.353 173.431 C 971.359 175.306, 965.085 180.189, 960.500 186.549 L 956.500 192.097 956.211 183.549 L 955.922 175 940.961 175 L 926 175 926 233.500 L 926 292 941.420 292 L 956.840 292 957.256 257.750 C 957.529 235.363, 958.080 222.247, 958.847 219.882 C 960.948 213.406, 964.218 209.641, 970.434 206.536 C 975.665 203.923, 977.414 203.571, 985.184 203.571 L 994 203.571 994 187.786 L 994 172 987.750 172.067 C 984.313 172.104, 979.634 172.718, 977.353 173.431 M 1038.773 173.555 C 1026.777 176.463, 1017.483 183.022, 1012.571 192.047 C 1009.419 197.838, 1007.030 205.877, 1007.012 210.750 L 1007 214 1021.551 214 L 1036.102 214 1037.578 210.250 C 1041.592 200.047, 1045.351 197.612, 1056.897 197.737 C 1065.360 197.828, 1071.816 199.875, 1073.834 203.105 C 1074.545 204.245, 1075.152 206.940, 1075.182 209.094 C 1075.284 216.483, 1071.642 218.431, 1052.699 221.119 C 1034.752 223.666, 1027.967 225.389, 1020.715 229.242 C 1013.840 232.895, 1009.639 237.412, 1006.101 244.954 C 1003.816 249.827, 1003.500 251.775, 1003.504 261 C 1003.508 274.196, 1005.646 279.648, 1013.705 287.014 C 1021.277 293.934, 1029.373 296.385, 1042.805 295.822 C 1054.270 295.342, 1059.733 293.214, 1070.250 285.132 C 1076.427 280.385, 1077 280.138, 1077.006 282.222 C 1077.009 283.475, 1077.480 286.188, 1078.053 288.250 L 1079.094 292 1096.047 292 C 1112.836 292, 1113 291.979, 1113 289.805 C 1113 288.597, 1111.763 286.318, 1110.250 284.741 L 1107.500 281.872 1106.949 240.186 C 1106.343 194.330, 1106.217 193.359, 1099.903 185.698 C 1096.154 181.150, 1084.733 175.474, 1075.315 173.479 C 1066.734 171.661, 1046.413 171.703, 1038.773 173.555 M 1236.500 173.890 C 1227.917 176.390, 1222.426 179.488, 1216.176 185.360 C 1209.096 192.011, 1204.687 198.949, 1201.360 208.672 C 1197.750 219.221, 1196.817 241.522, 1199.477 253.657 C 1203.193 270.607, 1212.074 282.470, 1226.314 289.503 C 1236.386 294.478, 1242.914 295.977, 1254.500 295.973 C 1272.297 295.968, 1284.691 291.350, 1295.037 280.868 C 1300.772 275.058, 1306.268 265.944, 1307.472 260.250 L 1308.159 257 1292.105 257 L 1276.051 257 1274.621 259.750 C 1271.110 266.499, 1264.034 270.299, 1255.015 270.281 C 1241.157 270.252, 1232.750 262.917, 1230.091 248.535 C 1229.491 245.289, 1229 242.490, 1229 242.316 C 1229 242.142, 1247 242, 1269 242 L 1309 242 1309 231.160 C 1309 201.080, 1294.530 179.947, 1269.540 173.530 C 1261.371 171.433, 1244.298 171.619, 1236.500 173.890 M 447.260 219.250 C 447.675 266.280, 447.830 267.896, 452.850 277.715 C 455.911 283.703, 462.501 289.645, 468.957 292.238 C 473.685 294.138, 476.411 294.468, 487.500 294.482 C 499.510 294.499, 500.933 294.297, 506.182 291.836 C 509.307 290.372, 514.370 286.746, 517.432 283.780 L 523 278.387 523 285.193 L 523 292 538.500 292 L 554 292 554 233.500 L 554 175 538 175 L 522 175 521.980 207.750 C 521.969 225.762, 521.518 243.557, 520.978 247.294 C 518.830 262.153, 511.326 269.294, 497.859 269.294 C 487.166 269.294, 481.880 265.095, 480.009 255.114 C 479.444 252.098, 479 233.283, 479 212.364 L 479 175 462.935 175 L 446.869 175 447.260 219.250 M 864 233.500 L 864 292 880 292 L 896 292 896 233.500 L 896 175 880 175 L 864 175 864 233.500 M 64.461 187.878 C 58.988 190.365, 52.508 197.927, 51.117 203.451 C 49.553 209.663, 49.706 212.140, 52.043 218.385 C 59.998 239.646, 90.997 238.586, 97.457 216.833 C 99.462 210.080, 99.405 208.157, 97.006 201.747 C 94.742 195.693, 89.294 189.845, 83.782 187.549 C 78.734 185.446, 69.469 185.604, 64.461 187.878 M 162.229 188.573 C 146.539 196.392, 144.619 217.297, 158.537 228.770 C 170.573 238.691, 189.293 233.631, 195.784 218.703 C 197.748 214.187, 197.296 204.608, 194.877 199.462 C 189.191 187.364, 174.492 182.462, 162.229 188.573 M 1248.058 198.106 C 1245.615 198.576, 1242.015 200.227, 1240.058 201.774 C 1236.364 204.694, 1231.620 213.113, 1230.492 218.750 L 1229.841 222 1253.466 222 L 1277.091 222 1276.419 218.250 C 1273.765 203.445, 1262.368 195.350, 1248.058 198.106 M 628.153 201.364 C 623.550 203.030, 618.148 208.412, 615.839 213.630 C 612.771 220.567, 611.418 233.565, 612.824 242.607 C 615.625 260.626, 623.964 269.250, 638.586 269.250 C 646.660 269.250, 652.295 266.272, 656.723 259.664 C 660.926 253.393, 662.028 249.455, 662.708 238.275 C 663.863 219.310, 658.454 206.012, 647.768 201.548 C 643.401 199.723, 632.957 199.625, 628.153 201.364 M 1071.636 237.680 C 1070.061 238.507, 1063.688 240.238, 1057.475 241.526 C 1039.227 245.310, 1034.768 248.798, 1034.848 259.223 C 1034.892 264.894, 1036.687 268.199, 1041.304 271.111 C 1047.685 275.136, 1061.830 272.156, 1069.223 265.229 C 1073.320 261.390, 1075.132 254.714, 1074.791 244.707 L 1074.500 236.176 1071.636 237.680 M 109.349 261.349 C 99.950 270.748, 99 272.037, 99 275.394 C 99 277.986, 99.734 279.825, 101.455 281.545 C 103.897 283.988, 104.011 284, 123.866 284 L 143.822 284 146.500 280.818 C 150.761 275.753, 149.594 273.145, 137.746 261.250 C 128.263 251.730, 127.256 251, 123.617 251 C 119.977 251, 118.960 251.738, 109.349 261.349" stroke="none" fill="#ffffff" fill-rule="evenodd"/></svg>