<svg xmlns="http://www.w3.org/2000/svg" width="1413" height="2008" viewBox="0 0 1413 2008" version="1.1"><path d="M 1225.910 0.981 C 1194.753 3.988, 1163.315 20.726, 1141.352 46.001 C 1131.302 57.565, 1126.762 60.482, 1119 60.358 C 1115.975 60.309, 1083.575 54.341, 1047 47.094 C 900.144 17.996, 824.159 3.032, 817.594 1.915 C 807.415 0.184, 794.765 1.194, 787.822 4.293 C 777.257 9.007, 769.004 18.700, 765.082 31 C 763.942 34.575, 760.111 51, 756.569 67.500 C 697.424 342.980, 688.212 385.275, 686.513 389.137 C 684.636 393.403, 683.168 395.215, 679.833 397.386 C 676.919 399.282, 663.452 401.441, 644.500 403.051 C 438.446 420.551, 252.037 527.200, 130.065 697.368 C 99.573 739.909, 72.620 788.817, 52.014 839 C 25.534 903.488, 8.862 972.385, 2.368 1044.167 C 0.175 1068.404, -0.578 1122.404, 0.962 1145 C 2.640 1169.622, 6.444 1202.895, 9.985 1223.912 C 13.947 1247.427, 13.869 1251.369, 9.057 1270.893 C 2.666 1296.822, 0.862 1310.335, 0.282 1336.610 C -0.116 1354.649, 0.139 1362.658, 1.442 1373.110 C 8.680 1431.139, 28.169 1477.978, 63.427 1522.086 C 73.709 1534.948, 94.686 1554.973, 109.500 1566.068 C 139.456 1588.502, 171.092 1603.842, 207 1613.344 C 223.199 1617.631, 232.647 1619.324, 252.411 1621.480 C 271.487 1623.562, 275.927 1625.344, 279.852 1632.498 C 281.337 1635.204, 281.558 1644.777, 282.083 1729.500 C 282.649 1820.769, 282.728 1823.789, 284.815 1833.443 C 290.543 1859.941, 301.130 1881.575, 317.184 1899.587 C 333.793 1918.224, 350.237 1929.319, 377.220 1940.099 C 469.968 1977.150, 551.619 1996.973, 644.500 2004.986 C 651.650 2005.603, 660.425 2006.525, 664 2007.034 C 674.629 2008.549, 738.707 2008.220, 752.530 2006.580 C 759.113 2005.799, 768.100 2004.868, 772.500 2004.511 C 830.279 1999.829, 895.345 1987.009, 956 1968.356 C 981.979 1960.367, 1034.294 1940.935, 1049.602 1933.588 C 1085.185 1916.512, 1110.583 1887.738, 1122.429 1851.080 C 1129.551 1829.039, 1129.326 1832.701, 1129.943 1729 C 1130.551 1626.939, 1130.195 1632.755, 1136.155 1627.389 C 1139.726 1624.173, 1144.189 1623.059, 1160 1621.437 C 1178.532 1619.536, 1187.051 1617.956, 1205.167 1613.059 C 1267.020 1596.340, 1319.654 1561.026, 1356.532 1511.500 C 1366.942 1497.521, 1370.537 1491.860, 1378.961 1476.187 C 1386.650 1461.880, 1395.136 1441.143, 1400.369 1423.869 C 1406.154 1404.773, 1411.758 1371.741, 1412.189 1354.199 L 1412.378 1346.500 1413 1355.500 C 1413.405 1361.360, 1413.621 1356.475, 1413.620 1341.500 C 1413.618 1326.060, 1413.414 1321.623, 1413 1328 L 1412.383 1337.500 1412.191 1329.742 C 1411.828 1315.006, 1407.775 1289.961, 1401.965 1266.552 C 1398.240 1251.541, 1398.243 1246.324, 1401.990 1224.174 C 1409.009 1182.680, 1411.500 1151.069, 1411.500 1103.500 C 1411.500 1052.487, 1408.093 1016.093, 1398.909 969 C 1366.998 805.366, 1276.674 657.933, 1143.204 551.621 C 1091.361 510.327, 1027.339 473.454, 965.500 449.273 C 912.206 428.433, 861.656 415.367, 800.291 406.570 C 782.955 404.085, 779.033 402.904, 775.629 399.143 C 772.030 395.165, 772.527 390.107, 779.973 355 C 783.880 336.575, 790.416 305.525, 794.496 286 C 815.959 183.292, 833.033 103.106, 834.102 100 C 837.096 91.296, 841.612 88.394, 850.785 89.281 C 855.807 89.767, 921.720 103.268, 1057 131.522 C 1102.055 140.931, 1106.752 142.498, 1110.627 149.405 C 1111.818 151.528, 1114.465 158.493, 1116.509 164.882 C 1121.177 179.472, 1125.502 188.637, 1132.966 199.759 C 1151.469 227.326, 1179.634 246.457, 1213 254.120 C 1225.151 256.911, 1246.739 257.621, 1259.573 255.651 C 1314.929 247.156, 1359.750 203.654, 1368.456 149.973 C 1379.606 81.218, 1334.574 16.457, 1266 2.631 C 1256.468 0.709, 1237.024 -0.091, 1225.910 0.981 M 670 496.652 C 627.645 499.243, 576.471 508.122, 535.200 520.042 C 521.116 524.110, 481.795 538.166, 469.095 543.672 C 435.970 558.035, 395.197 580.086, 368 598.346 C 336.416 619.553, 298.765 650.896, 270 679.928 C 177.767 773.018, 117.132 897.256, 100.568 1027.083 C 96.714 1057.287, 95.589 1075.199, 95.641 1105.500 C 95.710 1145.547, 99.258 1182.615, 106.649 1220.500 C 110.775 1241.649, 111.824 1255.799, 109.993 1265.623 C 109.288 1269.405, 106.743 1279.249, 104.337 1287.497 C 95.028 1319.413, 93.555 1350.468, 99.899 1381.054 C 103.581 1398.803, 107.303 1409.784, 114.968 1425.500 C 137.978 1472.681, 181.168 1507.820, 232.352 1521.001 C 244.506 1524.131, 250.103 1524.998, 275.074 1527.618 C 290.698 1529.257, 292.476 1529.261, 306.074 1527.673 C 323.978 1525.584, 334.821 1525.545, 342.540 1527.542 C 357.798 1531.491, 369.712 1543.734, 374.683 1560.575 C 376.293 1566.028, 376.476 1576.263, 376.981 1689 L 377.530 1811.500 379.774 1818.150 C 382.705 1826.835, 389.016 1836.168, 395.392 1841.247 C 401.840 1846.384, 414.095 1852.183, 434.500 1859.755 C 454.857 1867.309, 458.828 1868.304, 462.920 1866.878 C 469.434 1864.607, 469.434 1864.604, 470.103 1812.500 C 470.504 1781.302, 471.104 1764.025, 471.889 1761.112 C 475.177 1748.914, 484.201 1736.893, 494.486 1731.008 C 504.018 1725.554, 517.981 1723.546, 528.885 1726.060 C 540.651 1728.772, 552.420 1737.681, 557.954 1748.066 C 564.446 1760.246, 564.294 1758.553, 564.925 1825.500 C 565.467 1882.990, 565.610 1886.723, 567.420 1890.368 C 569.506 1894.571, 573.419 1897.455, 579.171 1899.030 C 590.635 1902.168, 631.952 1908.011, 642.500 1907.985 C 649.341 1907.968, 652.412 1906.705, 655.404 1902.678 C 657.470 1899.897, 657.508 1898.885, 658.056 1832.678 C 658.670 1758.562, 658.405 1761.650, 665.257 1748.708 C 670.780 1738.276, 683.290 1728.786, 695.112 1726.061 C 701.556 1724.575, 711.747 1724.784, 718.540 1726.542 C 730.347 1729.598, 741.999 1739.167, 747.430 1750.268 C 752.725 1761.089, 752.963 1764.472, 752.988 1829 C 753.002 1863.062, 753.431 1891.063, 753.993 1894.495 C 755.173 1901.701, 757.439 1905.013, 762.509 1906.943 C 765.859 1908.218, 768.367 1908.179, 783.902 1906.616 C 803.130 1904.681, 828.470 1900.771, 834 1898.887 C 839.676 1896.953, 842.745 1894.248, 844.382 1889.737 C 845.680 1886.161, 845.989 1876.294, 846.364 1826.500 C 846.672 1785.478, 847.173 1765.976, 848.008 1762.500 C 853.344 1740.267, 872.027 1725.052, 894.040 1725.012 C 916.406 1724.971, 934.265 1739.310, 939.616 1761.603 C 940.978 1767.277, 941.380 1776.714, 941.886 1814.833 L 942.500 1861.167 945.896 1864.199 C 948.856 1866.843, 949.817 1867.159, 953.396 1866.660 C 958.968 1865.885, 995.523 1852.770, 1005.805 1847.857 C 1019.802 1841.170, 1028.168 1831.094, 1032.672 1815.500 C 1034.260 1810.003, 1034.451 1799.230, 1034.952 1687 L 1035.500 1564.500 1037.827 1558.054 C 1042.239 1545.830, 1050.028 1536.626, 1060.500 1531.261 C 1071.526 1525.612, 1081.488 1524.807, 1105.611 1527.619 C 1118.489 1529.119, 1120.701 1529.115, 1136 1527.562 C 1166.591 1524.455, 1179.218 1521.928, 1196.757 1515.402 C 1248.059 1496.315, 1288.326 1455.448, 1305.979 1404.554 C 1315.044 1378.419, 1318.277 1343.413, 1314.158 1316 C 1313.042 1308.575, 1310.104 1295.525, 1307.628 1287 C 1299.553 1259.189, 1299.350 1253.022, 1305.449 1220.608 C 1319.849 1144.078, 1320.163 1068.377, 1306.383 995 C 1284.901 880.612, 1232.055 775.988, 1152.786 690.911 C 1140.271 677.479, 1115.234 653.781, 1096.500 637.634 C 1088.485 630.727, 1055.163 605.786, 1044 598.340 C 1015.647 579.427, 976.325 558.160, 943 543.713 C 930.216 538.171, 890.924 524.121, 876.800 520.042 C 843.070 510.300, 800.959 502.210, 764 498.371 C 750.029 496.920, 685.047 495.731, 670 496.652 M 407 965.595 C 367.913 970.292, 347.962 975.690, 320.500 988.998 C 296.624 1000.568, 277.720 1014.137, 257.906 1033.924 C 250.430 1041.391, 241.842 1050.650, 238.821 1054.500 C 204.238 1098.582, 186.471 1152.514, 188.273 1207.934 C 190.272 1269.436, 213.675 1323.634, 256.981 1367.055 C 277.321 1387.450, 296.682 1401.237, 322 1413.357 C 354.864 1429.090, 386.529 1436.237, 423.500 1436.266 C 488.929 1436.319, 546.602 1411.956, 592.550 1364.853 C 618.365 1338.389, 635.601 1310.288, 647.111 1275.899 C 655.370 1251.221, 659 1228.354, 659 1201 C 659 1157.676, 648.748 1119.053, 627.563 1082.572 C 591.302 1020.128, 529.487 978.430, 457 967.517 C 446.861 965.990, 414.165 964.733, 407 965.595 M 967 966.014 C 936.630 969.175, 911.215 976.397, 884.500 989.458 C 827.673 1017.242, 784.698 1066.337, 764.979 1126 C 756.376 1152.033, 753 1173.026, 753 1200.500 C 753 1253.094, 768.586 1300.396, 799.682 1342.180 C 808.480 1354.001, 828.269 1374.636, 839.500 1383.699 C 873.269 1410.951, 914.264 1428.639, 957.500 1434.614 C 971.752 1436.583, 1002.181 1436.834, 1015.500 1435.092 C 1059.164 1429.381, 1098.063 1413.628, 1131.325 1388.186 C 1173.526 1355.907, 1203.678 1310.343, 1216.575 1259.360 C 1222.210 1237.081, 1223.477 1226.286, 1223.482 1200.500 C 1223.486 1182.998, 1223.054 1174.871, 1221.676 1166.500 C 1213.304 1115.658, 1192.396 1073.170, 1158.502 1038.125 C 1137.899 1016.822, 1117.318 1001.666, 1092.500 989.519 C 1069.528 978.275, 1048.597 971.713, 1023.500 967.888 C 1008.636 965.622, 979.919 964.670, 967 966.014 M 400.296 1062.523 C 369.635 1067.888, 338.874 1085.278, 318.581 1108.722 C 295.779 1135.064, 283.725 1166.773, 283.693 1200.500 C 283.671 1223.800, 288.280 1242.815, 299.082 1264 C 306.359 1278.271, 314.987 1289.815, 327.135 1301.534 C 338.227 1312.235, 346.113 1317.995, 359 1324.810 C 377.710 1334.705, 396.121 1339.732, 417.099 1340.674 C 441.038 1341.749, 461.691 1337.599, 482.846 1327.462 C 502.178 1318.199, 517.698 1306.361, 530.214 1291.330 C 569.158 1244.564, 574.815 1181.965, 544.718 1130.827 C 525.212 1097.684, 494.903 1074.866, 457 1064.788 C 446.507 1061.998, 443.880 1061.702, 427 1061.409 C 414.086 1061.184, 406.023 1061.521, 400.296 1062.523 M 965.500 1062.460 C 923.551 1070.129, 887.840 1095.186, 866.834 1131.691 C 829.922 1195.838, 849.283 1275.930, 911.860 1317.953 C 927.966 1328.769, 951.684 1337.557, 971.498 1340.051 C 984.094 1341.636, 1005.650 1340.718, 1017 1338.111 C 1045.385 1331.594, 1068.625 1318.451, 1089.055 1297.363 C 1114.889 1270.696, 1128.368 1237.413, 1128.282 1200.500 C 1128.241 1183.255, 1126.258 1171.729, 1120.427 1154.852 C 1103.905 1107.035, 1060.654 1070.602, 1010.813 1062.518 C 999.543 1060.691, 975.350 1060.659, 965.500 1062.460 M 0.429 1342.500 C 0.429 1355.150, 0.573 1360.187, 0.747 1353.694 C 0.922 1347.200, 0.921 1336.850, 0.746 1330.694 C 0.571 1324.537, 0.428 1329.850, 0.429 1342.500 M 696.712 1437.078 C 689.763 1438.502, 682.344 1442.071, 675.500 1447.284 C 666.551 1454.100, 576.915 1544.619, 573.141 1550.652 C 555.202 1579.323, 569.407 1614.996, 602 1623.128 C 606.476 1624.244, 625.938 1624.500, 706.500 1624.500 C 799.763 1624.500, 805.848 1624.393, 811.500 1622.661 C 820.652 1619.857, 828.431 1615.295, 833.872 1609.542 C 849.102 1593.439, 851.090 1570.194, 838.903 1550.719 C 834.378 1543.488, 742.414 1451.206, 734 1445.453 C 730.425 1443.009, 724.906 1440.101, 721.735 1438.990 C 714.885 1436.592, 703.379 1435.713, 696.712 1437.078" stroke="none" fill="#ffffff" fill-rule="evenodd"/></svg>